<?xml version="1.0" encoding="UTF-8"?>
<svg xmlns="http://www.w3.org/2000/svg" xmlns:xlink="http://www.w3.org/1999/xlink" width="32px" height="32px" viewBox="0 0 32 32" version="1.1">
<g id="surface1">
<path style=" stroke:none;fill-rule:nonzero;fill:rgb(0%,0%,0%);fill-opacity:1;" d="M 12.375 28.703125 L 24.722656 28.703125 L 24.722656 32 L 12.375 32 Z M 12.375 28.703125 "/>
<path style=" stroke:none;fill-rule:nonzero;fill:rgb(0%,0%,0%);fill-opacity:1;" d="M 16.445312 6.667969 L 16.445312 0 L 9.566406 0 L 9.566406 6.667969 L 10.832031 6.667969 L 10.832031 5.789062 C 10.839844 4.816406 11.425781 3.945312 12.324219 3.578125 C 13.222656 3.207031 14.257812 3.414062 14.945312 4.097656 C 15.398438 4.546875 15.648438 5.160156 15.648438 5.796875 C 15.648438 6.070312 15.644531 6.386719 15.644531 6.667969 Z M 16.445312 6.667969 "/>
<path style=" stroke:none;fill-rule:nonzero;fill:rgb(0%,0%,0%);fill-opacity:1;" d="M 25.421875 14.316406 L 23.53125 14.316406 L 23.53125 16.527344 C 23.53125 16.796875 23.3125 17.015625 23.039062 17.015625 C 22.769531 17.015625 22.550781 16.796875 22.550781 16.527344 L 22.550781 13.574219 C 22.542969 13.09375 22.152344 12.703125 21.671875 12.703125 L 19.601562 12.703125 L 19.601562 16.527344 C 19.601562 16.796875 19.382812 17.015625 19.109375 17.015625 C 18.839844 17.015625 18.621094 16.796875 18.621094 16.527344 L 18.621094 11.875 C 18.621094 11.394531 18.207031 11.019531 17.726562 11.019531 L 15.636719 11.019531 C 15.632812 13.894531 15.625 16.53125 15.625 16.53125 L 14.640625 16.523438 C 14.640625 16.523438 14.648438 13.585938 14.65625 10.542969 C 14.65625 10.53125 14.65625 10.523438 14.65625 10.515625 C 14.65625 10.503906 14.65625 10.496094 14.65625 10.484375 C 14.660156 8.792969 14.664062 7.074219 14.664062 5.808594 C 14.664062 5.023438 14.027344 4.382812 13.242188 4.382812 C 12.453125 4.382812 11.816406 5.019531 11.8125 5.804688 L 11.8125 7.1875 L 11.804688 17.195312 C 11.804688 17.398438 11.679688 17.582031 11.484375 17.652344 C 11.296875 17.726562 11.078125 17.671875 10.945312 17.515625 L 9.386719 15.734375 C 8.519531 14.75 7.023438 14.640625 6.019531 15.488281 C 6.011719 15.496094 6.007812 15.5 6 15.507812 L 5.753906 15.695312 L 11.109375 25.304688 C 11.839844 26.613281 13.140625 27.503906 14.621094 27.71875 L 22.15625 27.71875 C 24.507812 27.367188 26.28125 25.359375 26.285156 22.984375 C 26.285156 21.457031 26.289062 20.40625 26.289062 19.589844 C 26.292969 17.878906 26.292969 17.167969 26.289062 15.1875 C 26.289062 14.707031 25.898438 14.320312 25.421875 14.316406 Z M 25.421875 14.316406 "/>
</g>
</svg>
